HIERARCHY
ROOT SpineBase
{
  OFFSET 0.000000 0.000000 0.000000
  CHANNELS 6 Xposition Yposition Zposition Zrotation Xrotation Yrotation
  JOINT SpineMid
  {
    OFFSET 0.000000 28.679789 0.000000
    CHANNELS 3 Zrotation Xrotation Yrotation
    JOINT SpineShoulder
    {
      OFFSET -0.121876 21.389922 -0.779727
      CHANNELS 3 Zrotation Xrotation Yrotation
      JOINT Neck
      {
        OFFSET -0.068072 7.123155 -0.559137
        CHANNELS 3 Zrotation Xrotation Yrotation
        JOINT Head
        {
          OFFSET -4.740430 11.076795 2.306861
          CHANNELS 3 Zrotation Xrotation Yrotation
          End Site
          {
            OFFSET 0 0 0
          }
        }
      }
      JOINT ShoulderLeft
      {
        OFFSET -12.572489 -4.933028 8.011420
        CHANNELS 3 Zrotation Xrotation Yrotation
        JOINT ElbowLeft
        {
          OFFSET -4.544069 -22.849690 4.345351
          CHANNELS 3 Zrotation Xrotation Yrotation
          JOINT WristLeft
          {
            OFFSET 1.203307 -22.717176 -6.553308
            CHANNELS 3 Zrotation Xrotation Yrotation
            JOINT HandLeft
            {
              OFFSET -0.095646 -5.226466 -0.482619
              CHANNELS 3 Zrotation Xrotation Yrotation
              JOINT HandTipLeft
              {
                OFFSET 0.604972 -4.918481 -0.741109
                CHANNELS 3 Zrotation Xrotation Yrotation
                End Site
                {
                  OFFSET 0 0 0
                }
              }
              JOINT ThumbLeft
              {
                OFFSET -2.429755 0.147585 -0.494346
                CHANNELS 3 Zrotation Xrotation Yrotation
                End Site
                {
                  OFFSET 0 0 0
                }
              }
            }
          }
        }
      }
      JOINT ShoulderRight
      {
        OFFSET 10.700201 -2.564220 -10.154725
        CHANNELS 3 Zrotation Xrotation Yrotation
        JOINT ElbowRight
        {
          OFFSET 6.547061 -18.393919 -5.043693
          CHANNELS 3 Zrotation Xrotation Yrotation
          JOINT WristRight
          {
            OFFSET -23.225061 -3.379605 -7.653558
            CHANNELS 3 Zrotation Xrotation Yrotation
            JOINT HandRight
            {
              OFFSET -7.665546 -1.555602 -1.996471
              CHANNELS 3 Zrotation Xrotation Yrotation
              JOINT HandTipRight
              {
                OFFSET -5.956989 -2.688541 -3.288437
                CHANNELS 3 Zrotation Xrotation Yrotation
                End Site
                {
                  OFFSET 0 0 0
                }
              }
              JOINT ThumbRight
              {
                OFFSET -2.106764 -5.179039 -1.629874
                CHANNELS 3 Zrotation Xrotation Yrotation
                End Site
                {
                  OFFSET 0 0 0
                }
              }
            }
          }
        }
      }
    }
  }
  JOINT HipLeft
  {
    OFFSET -5.609757 0.324385 0.545661
    CHANNELS 3 Zrotation Xrotation Yrotation
    JOINT KneeLeft
    {
      OFFSET 3.559298 -32.535247 1.971918
      CHANNELS 3 Zrotation Xrotation Yrotation
      JOINT AnkleLeft
      {
        OFFSET 8.513869 -30.740314 6.041877
        CHANNELS 3 Zrotation Xrotation Yrotation
        JOINT FootLeft
        {
          OFFSET 1.848020 -5.482027 -6.135120
          CHANNELS 3 Zrotation Xrotation Yrotation
          End Site
          {
            OFFSET 0 0 0
          }
        }
      }
    }
  }
  JOINT HipRight
  {
    OFFSET 4.991714 1.775207 -6.960014
    CHANNELS 3 Zrotation Xrotation Yrotation
    JOINT KneeRight
    {
      OFFSET 4.587822 -29.679203 -1.061733
      CHANNELS 3 Zrotation Xrotation Yrotation
      JOINT AnkleRight
      {
        OFFSET 7.962929 -30.761080 3.330661
        CHANNELS 3 Zrotation Xrotation Yrotation
        JOINT FootRight
        {
          OFFSET -3.945712 -6.326451 -1.596042
          CHANNELS 3 Zrotation Xrotation Yrotation
          End Site
          {
            OFFSET 0 0 0
          }
        }
      }
    }
  }
}
MOTION
Frames: 10
Frame Time: 0.033333
27.425370 72.608505 327.832928 2.544030 -1.968258 37.037829 0.105973 0.026828 -36.912786 0.052371 -0.066141 0.106484 1.705056 1.600390 -1.319129 0.000000 0.000000 0.000000 4.847636 14.740586 -2.461611 -7.348053 -31.259877 -0.603446 5.367383 -3.788327 0.167323 -6.260523 26.463944 2.115805 0.000000 0.000000 0.000000 0.000000 0.000000 0.000000 0.693199 33.046250 8.504089 3.506096 -33.900293 -38.605030 -28.009110 6.969683 -15.456593 2.753333 12.105793 5.062685 0.000000 0.000000 0.000000 0.000000 0.000000 0.000000 -9.923982 8.260556 -36.840427 11.944628 5.018840 1.892878 7.245063 -1.441969 -9.795192 0.000000 0.000000 0.000000 0.632873 28.722960 -33.471170 4.055974 -14.946843 -3.565301 5.141278 14.757820 -11.490161 0.000000 0.000000 0.000000
26.765715 72.774678 325.804706 3.096725 -1.996529 39.707682 0.059988 0.182455 -39.557534 0.087381 -0.172352 0.128447 4.335113 4.916598 -0.887595 0.000000 0.000000 0.000000 6.142947 17.028057 -3.101885 -11.690513 -41.757991 -2.021541 3.057467 2.909496 0.413248 -0.683602 23.600529 -0.227748 0.000000 0.000000 0.000000 0.000000 0.000000 0.000000 1.273234 37.665428 9.256332 0.220373 -37.425110 -44.724944 -29.540675 6.956202 -17.170299 -0.358294 15.500676 2.757262 0.000000 0.000000 0.000000 0.000000 0.000000 0.000000 -11.354273 7.276523 -39.673572 11.882697 6.816478 1.731098 4.141488 6.019139 -4.335228 0.000000 0.000000 0.000000 1.387507 27.688534 -36.614103 1.388486 -9.829719 -2.912402 3.358983 16.403432 -13.429764 0.000000 0.000000 0.000000
26.021616 72.897492 323.434204 3.944083 -2.355086 43.153129 -0.033297 0.151745 -42.946333 -0.052984 -0.030741 0.148874 4.333434 8.039831 -0.145205 0.000000 0.000000 0.000000 6.803851 18.812363 -3.636320 -15.739341 -50.588988 -4.118472 -0.758719 7.927519 2.207909 0.688716 18.664062 -0.642236 0.000000 0.000000 0.000000 0.000000 0.000000 0.000000 -0.718039 42.419887 11.379694 -0.792594 -41.658863 -48.933184 -32.478506 7.246493 -18.647039 1.895213 19.884424 -1.687438 0.000000 0.000000 0.000000 0.000000 0.000000 0.000000 -14.023370 7.219953 -43.133005 13.551210 9.272997 1.589981 -0.114703 12.419431 1.012563 0.000000 0.000000 0.000000 2.069993 27.754894 -40.424054 0.605041 -7.065525 -2.332462 -0.002565 20.823252 -15.144183 0.000000 0.000000 0.000000
25.229999 72.992987 320.865189 4.867171 -2.841728 45.865375 -0.082241 0.215467 -45.589235 -0.232199 0.097485 0.169033 2.271504 10.302828 0.879854 0.000000 0.000000 0.000000 6.794196 19.454936 -3.829048 -18.972615 -56.285330 -6.283627 -4.857862 16.329812 5.059880 9.407933 18.043995 -3.444476 0.000000 0.000000 0.000000 0.000000 0.000000 0.000000 -12.273500 49.281146 21.008392 4.768455 -51.037384 -53.831462 -32.753315 6.380167 -19.410432 3.225872 22.813582 -6.356108 0.000000 0.000000 0.000000 0.000000 0.000000 0.000000 -16.850660 6.998188 -45.806322 15.644224 11.500572 1.176119 -5.405992 18.158921 6.486027 0.000000 0.000000 0.000000 2.061481 27.712485 -43.350001 0.877110 -5.443859 -1.818393 -3.878445 26.699539 -16.388195 0.000000 0.000000 0.000000
24.507460 72.896248 318.979503 5.712547 -3.971055 47.939585 -0.140334 0.150942 -47.556272 -0.349021 0.148184 0.194586 0.918693 13.473605 1.702843 0.000000 0.000000 0.000000 7.088160 21.430857 -4.356962 -19.202980 -58.422882 -6.614655 -5.215624 16.577707 5.473725 9.180351 18.354118 -3.620650 0.000000 0.000000 0.000000 0.000000 0.000000 0.000000 -23.151832 54.665332 30.703741 3.678027 -54.755023 -59.937555 -27.438782 6.965976 -21.641099 3.176472 24.239413 -8.877801 0.000000 0.000000 0.000000 0.000000 0.000000 0.000000 -21.043455 6.406106 -47.805052 19.253201 16.491408 0.507751 -11.180122 21.668558 11.025251 0.000000 0.000000 0.000000 3.223297 29.805466 -45.592005 2.354018 -6.803376 -1.908938 -8.520738 25.353474 -13.723859 0.000000 0.000000 0.000000
23.915066 72.916702 316.666182 6.802646 -4.996954 49.295614 -0.185866 0.124373 -48.774756 -0.442447 0.181846 0.232571 -2.748297 16.980937 3.559491 0.000000 0.000000 0.000000 7.083908 23.236461 -4.899880 -20.207135 -61.500702 -7.505036 -5.613592 18.417498 6.082291 7.289822 15.114314 -3.309090 0.000000 0.000000 0.000000 0.000000 0.000000 0.000000 -40.331324 56.919164 45.239842 4.957081 -57.471183 -63.894153 -18.609850 7.824654 -23.855124 4.394241 22.672267 -8.357007 0.000000 0.000000 0.000000 0.000000 0.000000 0.000000 -22.503801 6.726914 -48.761232 21.048808 16.817640 -0.365823 -15.388819 23.472894 14.078485 0.000000 0.000000 0.000000 2.638334 31.468922 -46.769177 4.623981 -8.012761 -1.884385 -8.943258 23.382763 -11.967755 0.000000 0.000000 0.000000
23.462935 73.068602 314.392258 7.925323 -5.930354 51.162350 -0.204582 0.152258 -50.489145 -0.506042 0.199209 0.273537 -7.481487 20.134175 6.007864 0.000000 0.000000 0.000000 6.697859 24.394511 -5.235464 -19.061323 -61.938236 -6.898960 -4.959778 15.522052 5.677910 2.785274 15.119609 -1.974940 0.000000 0.000000 0.000000 0.000000 0.000000 0.000000 -58.191604 55.261188 59.727452 8.713115 -59.403199 -65.011200 -9.681025 8.604917 -26.417785 2.546337 18.982082 -3.087652 0.000000 0.000000 0.000000 0.000000 0.000000 0.000000 -21.136838 8.863296 -49.868622 21.471568 12.749179 -0.847618 -18.817597 26.126720 17.386197 0.000000 0.000000 0.000000 1.680217 32.661115 -48.353755 7.136823 -8.850622 -1.794142 -10.548876 25.043992 -10.887844 0.000000 0.000000 0.000000
22.987645 73.252131 311.845480 9.101465 -6.569571 51.458675 -0.225993 0.170166 -50.631171 -0.526373 0.180550 0.320308 -12.706966 22.231807 8.557310 0.000000 0.000000 0.000000 5.736974 24.949180 -5.355431 -15.994725 -61.585699 -5.256772 -4.350554 14.269927 5.379495 -3.424096 15.646092 0.737104 0.000000 0.000000 0.000000 0.000000 0.000000 0.000000 -72.121356 50.742150 69.747758 16.391844 -61.987724 -62.303722 -6.615639 8.618277 -26.254468 5.994601 16.404418 1.988905 0.000000 0.000000 0.000000 0.000000 0.000000 0.000000 -18.823677 10.253844 -49.697785 20.275847 6.988467 -1.128264 -20.847532 27.935932 19.858535 0.000000 0.000000 0.000000 -0.899563 33.256795 -47.932405 8.976838 -8.381553 -1.609530 -11.257744 26.379598 -10.326233 0.000000 0.000000 0.000000
22.611582 73.384759 309.567931 10.092715 -6.878147 48.837417 -0.240476 0.198422 -47.890607 -0.513116 0.137813 0.362049 -17.457801 22.964618 10.635911 0.000000 0.000000 0.000000 4.297460 24.637067 -5.146544 -11.263294 -59.867578 -2.873782 -5.044046 13.975776 5.815758 -9.859582 13.413216 3.365573 0.000000 0.000000 0.000000 0.000000 0.000000 0.000000 -80.832383 44.935790 74.264849 26.279657 -63.621907 -56.023270 -3.533341 7.624230 -23.387634 1.944302 12.510370 5.741038 0.000000 0.000000 0.000000 0.000000 0.000000 0.000000 -15.756750 10.741295 -46.979734 17.616493 -0.122921 -1.309259 -20.610403 28.543325 20.345527 0.000000 0.000000 0.000000 -5.353501 33.450636 -44.001543 10.485463 -7.662506 -1.466194 -10.660836 28.207486 -10.767201 0.000000 0.000000 0.000000
22.453008 73.464425 307.809213 10.964649 -6.961644 45.330328 -0.310754 0.424967 -44.296604 -0.409084 0.005490 0.400733 -20.847060 23.219109 12.058493 0.000000 0.000000 0.000000 3.588291 25.082127 -5.302945 -8.777370 -59.230517 -1.561262 -4.980049 13.534965 5.769644 -10.610452 19.436419 4.812133 0.000000 0.000000 0.000000 0.000000 0.000000 0.000000 -85.395242 39.817225 74.992932 33.733558 -63.339009 -49.326444 0.707283 6.988195 -23.060379 -3.188946 7.581727 12.043958 0.000000 0.000000 0.000000 0.000000 0.000000 0.000000 -11.420224 10.660943 -43.688551 12.438344 -7.789137 -1.773817 -22.353134 31.121339 25.092940 0.000000 0.000000 0.000000 -10.217178 32.779807 -39.156967 11.417991 -6.621449 -1.377492 -9.964971 29.563590 -11.184768 0.000000 0.000000 0.000000
